<?xml version="1.0" encoding="UTF-8"?>
<svg id="Ebene_2" data-name="Ebene 2" xmlns="http://www.w3.org/2000/svg" viewBox="0 0 455.24 479.67">
  <defs>
    <style>
      .cls-1 {
        fill: #535841;
      }

      .cls-1, .cls-2, .cls-3 {
        stroke-width: 0px;
      }

      .cls-2 {
        fill: #47534a;
      }

      .cls-3 {
        fill: #f7f7f5;
      }
    </style>
  </defs>
  <g id="Ebene_1-2" data-name="Ebene 1">
    <g>
      <path class="cls-2" d="M229.23,134.86c-5.96,2.82-8.86,7.51-11.96,11.95-9.81,14.05-21.2,26.55-35.93,35.57-16.23,9.95-33.45,16.42-53.01,13.54-1.15-.17-2.32-.32-3.43-.63-5.87-1.65-7.37-4.67-4.44-10.03,5.95-10.87,14.46-19.45,24.77-26.23,17.79-11.69,37.5-17.63,58.59-19.28,5.31-.42,10.62-.75,15.65-2.78,8.99-3.63,12.88-10.94,11.11-21.03-1.81.33-3.13,1.47-4.58,2.48-18.53,12.96-45,13.14-62.37.45-2.12-1.55-4.91-2.93-4.36-6.1.53-3.02,3.5-3.83,5.94-4.77,11.98-4.63,24.09-4.1,36.25-.74,5.61,1.55,11.17,3.3,17.01,3.85,8.18.77,14.23-2.32,17.98-9.75,1.8-3.56,3.67-7.09,5.56-10.6,1.19-2.21,2.8-4.06,5.55-2.54,2.6,1.44,2.34,3.7,1.09,6.03-12.95,24.16-12.66,49.45-6.51,75.28,1.66,6.98,4.74,11.73,12.33,14.49,16.27,5.93,25.6,18.92,31.04,34.97,8.32,24.55,6.16,47.97-8.17,69.75-20.19,30.69-63.12,29.73-82.37-1.65-16.37-26.69-13.65-64.83,6.26-89.07,7.6-9.25,17.1-15.11,28.96-17.13,6.69-1.14,6.71-1.25,4.63-7.84-3.82-12.16-5.88-24.58-5.59-38.2ZM222.1,203.51c-4.55.71-7.77,3.87-10.55,7.41-10.77,13.67-13.01,29.43-10.86,46.15.38,2.98,1.51,5.76,3.56,8.1,1.21,1.38,2.63,2.1,4.4,1.54,1.91-.6,2.31-2.19,2.19-3.99-.14-2.15-.18-4.32-.39-6.46-1.43-14.35,2.06-27.3,10.83-38.81,1.8-2.37,3.53-4.86,4.86-7.51,1.54-3.05-.55-6.31-4.04-6.42Z"/>
      <path class="cls-2" d="M61.93,186.51c-7.49,0-14.98.03-22.48,0-6.81-.04-7.95-1.26-7.35-7.98,2.71-30.63,12.89-58.84,29.34-84.54C95.31,41.06,144.21,11.16,205.95,1.62c3.29-.51,6.56-1.17,9.86-1.51,4.44-.45,6.67,1.42,6.73,5.91.12,9.16-.06,18.32-.01,27.48.02,3.94-1.89,5.84-5.68,6.04-2.33.13-4.66.28-6.98.27-4.55-.02-6.12,2.33-5.92,6.65.2,4.5,3.11,4.34,6.28,4.19,4.15-.2,8.32-.49,12.47-.34,3.71.13,5.61,2.32,5.7,6.18.1,3.81-1.79,5.42-5.35,5.72-18.91,1.62-37.04,6.03-54.06,14.71-13.44,6.85-26.24,14.89-36.42,25.93-10.78,11.7-20.03,24.73-27.24,39.17-6.16,12.35-10.74,25-12.22,38.73-.43,4.02-2.64,5.73-6.7,5.66-8.15-.14-16.31-.04-24.47-.04,0,.04,0,.09,0,.13ZM207.57,24.36c.21-5.98-1.31-7.17-7.57-6.03-37.26,6.8-69.97,22.68-97.43,48.99-10.88,10.42-9.97,9.7-.34,18.44,3.93,3.57,4.6,7.47,1.92,9.88-3.69,3.3-6.41.52-9.05-1.79-9.43-8.25-10.01-8.18-16.92,2.39-.27.42-.54.84-.81,1.25-1.72,2.64-2.23,5.21.44,7.58,2.82,2.51,5.1,1.38,7.25-1.04,1.64-1.86,3.59-2.38,5.75-.9,2.18,1.49,2.95,3.68,2.12,6.11-.58,1.7-1.47,3.4-2.61,4.78-8.14,9.84-12.21,21.61-16.19,33.47-1.21,3.62-.19,5.87,3.32,6.93,3.45,1.04,6.58,1.1,8.06-3.23,7.34-21.5,19.8-39.77,35.61-55.87,2.48-2.53,2.57-4.86.3-7.39-2.33-2.6-4.62-5.25-7.11-7.69-2.6-2.55-2.49-4.82.09-7.21,1.1-1.02,2.03-2.23,3.2-3.15,24.79-19.52,51.79-34.37,83.56-38.73,4.83-.66,6.95-2.55,6.43-6.79ZM194.11,47.88c.12-6.88-1.06-7.81-7.38-5.91-9.09,2.73-18.01,5.96-26.58,10.03-11.75,5.58-22.93,12.11-32.88,20.62-3.05,2.61-3.38,5.18-1,8.14,2.94,3.66,6.27,2.99,9.66.58,16.62-11.82,33.86-22.41,54.11-26.94,3.82-.85,4.23-3.75,4.06-6.51ZM74.57,173.39c4.54.46,6.52-1.92,6.78-6.09.26-4.27-2.46-5.34-6.06-5.45-1.49-.05-2.98-.3-4.44-.61-5.38-1.14-6.66-2.88-5.74-8.42,1.05-6.26,3.39-12.13,5.84-17.97,1.61-3.82,3.28-7.65,4.45-11.62.94-3.19-.21-5.98-3.54-7.3-2.89-1.15-4.93.29-6.14,2.73-7.26,14.68-12.66,29.98-14.91,46.28-.43,3.11.69,5.21,4.01,5.68,6.58.93,13.17,1.84,19.75,2.76Z"/>
      <path class="cls-2" d="M405.9,186.19c-7.49,0-14.98-.07-22.47.02-6.15.08-7.43-.73-8.2-6.73-3.2-24.65-13.33-46.31-29.04-65.25-24.32-29.33-55.58-46.43-93.44-51.31-3.77-.49-7.96-.72-8.59-5.82-.57-4.59,2.4-7.62,7.2-7.34,2.65.16,5.28.7,7.91,1.07,3.02.42,5.31-.2,5.72-3.78.4-3.53-.27-6.47-4.32-7.15-2.78-.47-5.63-.54-8.45-.72-3.98-.25-6.17-2.27-6.19-6.31-.06-8.99-.11-17.99-.07-26.98.02-4.46,2.51-6.33,6.81-5.78,63.2,8.19,115.23,35.28,151.17,89.55,17.16,25.92,28.58,54.02,32.42,85.04,1.38,11.14.94,11.81-10,11.83-6.82,0-13.64,0-20.47,0,0-.11,0-.21,0-.32ZM266.89,18c-5.16-.1-6.42,1.07-6.57,5.14-.18,4.9,1.57,6.82,7,7.72,31.78,5.24,59.86,18.5,84.45,39.21,6.7,5.64,6.6,7.05.28,12.78-7.52,6.81-7.57,8.75-.63,16.17,13.33,14.24,23.9,30.22,30.68,48.61.62,1.69,1.33,3.5,2.5,4.81,2.51,2.79,5.76,3.17,9.1,1.57,3.58-1.71,1.97-4.61,1.1-6.93-4.09-10.9-8.47-21.68-15.3-31.25-1.44-2.02-2.77-4.17-3.76-6.44-1.42-3.28.23-5.53,3.27-6.59,2.48-.87,3.94,1.16,5.46,2.69,2.27,2.29,4.7,2.18,7.19.43,2.6-1.84,2.33-4.12.91-6.57-1.93-3.32-4.07-6.47-6.67-9.31-2.45-2.68-4.94-3.1-7.75-.51-2.07,1.92-4.2,3.79-6.38,5.58-2.38,1.94-4.97,3.02-7.52.36-2.35-2.46-1.93-5.26-.02-7.69,1.31-1.67,3.12-2.96,4.76-4.36,6.68-5.7,6.71-6.63.56-12.84-19.53-19.73-42.57-33.93-68.52-43.52-11.41-4.22-23.16-7.18-34.14-9.06ZM279.11,41.1c-2.29-.49-3.39.66-3.91,2.75-1.5,6.1.18,9.03,6.73,11,18.68,5.63,35.73,14.36,50.98,26.57,4.5,3.6,6.72,3.29,10.12-.69,3.55-4.15.91-6.56-2.2-8.97-13.38-10.36-27.97-18.59-43.73-24.73-5.89-2.3-11.82-4.5-17.99-5.94ZM395.38,173.13c5.22-.66,11.98-1.44,18.72-2.39,3.24-.46,4.44-2.56,3.89-5.75-2.76-16.13-7.17-31.73-14.65-46.37-1.3-2.54-3.13-4.06-5.99-2.84-2.79,1.19-4.71,3.34-4.13,6.62.34,1.93,1.24,3.77,1.96,5.63,2.41,6.19,5.08,12.3,7.23,18.58,4,11.69,2.53,13.94-9.4,15.39-3.45.42-5.58,1.94-5.2,5.82.36,3.71,1.96,5.95,7.58,5.31Z"/>
      <path class="cls-2" d="M29.54,408.24c2.35-1.38,3.83.33,5.47,1.19,26.29,13.77,53.87,21.83,83.91,19.35,16.25-1.34,34.23-7.59,45.45-16.11-7.15-2.08-14.01-4.18-20.94-6.05-3.09-.83-3.45-1.77-2.45-5.09,3.28-10.89,12.35-12.93,21.43-15.12,3.36-.81,6.09,1.14,8.66,3.04.93.69,1.85,1.41,2.74,2.15,9.16,7.61,15.81,7.98,25.84,1.08,4.79-3.3,9.31-6.99,14-10.44,1.14-.84,2.38-2.32,3.93-.96,1.79,1.56-.31,2.64-.88,3.76-1.52,2.95-3.23,5.82-4.98,8.64-1.35,2.18-.65,3.02,1.69,3.07,11.1.25,21.6-1.96,30.6-8.73,6.23-4.69,6.32-11.61,1.16-17.45-1.75-1.98-2.88-.51-4.27.09-1.17.5-2.46,1.77-3.59.53-1.18-1.3.43-2.44.98-3.51,2.25-4.45,4.6-8.86,7.04-13.21,2.05-3.64,4.28-3.56,6.43-.02,8.03,13.23,5.11,26.2-2.2,38.15-10.43,17.04-27.07,21.9-45.83,14.6-2.25-.88-4.33-1.03-6.75-.55-14.82,2.93-27.89,8.86-39.29,19.24-16.4,14.94-36.41,18.37-57.82,15.4-26.81-3.72-49.76-15.72-70.33-33.06Z"/>
      <path class="cls-2" d="M338.1,153.55c3.43,4.06,7.19,7.84,9.76,12.57,3.45,6.36,2.51,8.86-4.29,11.12-14.33,4.76-28.36,2.38-42.09-2.33-23.67-8.13-41.67-23.01-52.89-45.72-1.95-3.94-1.34-5.02,3.22-5.02,11.17,0,22.28.22,33.31,2.25,14.97,2.76,28.39,9.06,40.96,17.41l6.09,4.64.07.26s.27.02.27.02c.69.89,1.33,1.84,2.56,2.06,0,0,.06.04.06.04.32.28.63.56.95.84.41.38.82.76,1.24,1.14.26.23.51.47.77.7Z"/>
      <path class="cls-2" d="M350.64,303.39c1.34,9.13,2.51,17.17,3.7,25.2.23,1.58,1.22,3.47-1.27,4.07-2.93.7-2.19-1.9-2.43-3.21-2.58-13.73-5.07-27.47-7.53-41.22-.69-3.82.54-4.86,4.37-3.54,4.8,1.65,9.02,4.38,12.33,8.22,13.25,15.35,22.56,32.2,19.28,53.5-2.45,15.87-11.01,28.28-22.48,38.99-9.35,8.73-19.7,16.4-27.68,26.56-4.04,5.14-7.63,10.54-9.59,16.82-8.16,26.19-26.04,41.79-52.35,48.19-18.52,4.5-36.99,2.77-55.44-.6-.91-.17-1.75-.68-2.85-1.12,28.16,1.69,54.23-3.12,77.22-20,10.1-7.42,18.36-16.55,23.86-27.74,9.46-19.23,21.72-36.08,38.3-49.82,7.31-6.05,13.31-13.45,18.63-21.38,10.81-16.11,9.66-29.23-3.98-43.01-3.36-3.39-6.71-6.83-12.09-9.9Z"/>
      <path class="cls-2" d="M409.1,311.75c-16.59-14.53-25.43-33.73-32.49-55.71,14.62,7.82,28.1,14.78,41.31,22.2,8.42,4.73,16.07,10.64,22.68,17.79,4.09,4.42,7.58,9.29,10.34,14.62,5.2,10.04,5.75,20.39,1.32,30.85-5.28,12.47-14.53,21.63-25.59,30.63,1.43-6.66,3.47-12.07,5.54-17.45,3.65-9.47,7.27-18.95,9.33-28.93,2.55-12.33-1.06-19.61-12.12-25.4-8.69-4.54-17.23-9.36-25.86-14.01-1.2-.65-2.39-2.27-3.94-.68-1.51,1.54.07,2.8.65,4.02,3.37,7.04,6.84,14.02,10.27,21.03-.49.35-.97.69-1.46,1.04Z"/>
      <path class="cls-2" d="M0,329.02c4.25-4.51,9.19-5.9,14.17-6.93,8.46-1.75,16.84-.93,25.14,1.29,7.45,1.99,12.99,5.89,16.32,13.28,3.96,8.79,10.21,15.16,20.88,15,8.42-.13,13.34-6.61,11.53-14.87-.62-2.8-2.46-2.12-4.16-2.22-1.32-.08-2.9.1-3.31-1.48-.38-1.48,1.26-1.76,2.16-2.35,4.43-2.93,8.9-5.82,13.39-8.66,3.18-2,5.18-.88,5.52,2.98,1.17,13.43-8.32,27.65-22.79,34.14-16.49,7.4-30.45,3.94-39.42-11.69-6.82-11.88-17.18-15.14-29.23-16.63-3.23-.4-6.42-1.16-10.22-1.86Z"/>
      <path class="cls-2" d="M255.15,416.95c.1,4.68-1.92,7.76-4.54,10.3-7.91,7.64-18.05,10.29-28.48,12.12-3.01.53-2.3-1.71-1.86-3.21,1.27-4.33,4.71-6.76,8.39-8.79,4.09-2.25,8.53-3.69,12.98-5.06,4.45-1.37,8.83-2.92,13.51-5.36Z"/>
      <path class="cls-2" d="M75.84,308.37c-12.68,8.45-19.54,4.81-30.42-3.83-1.35-1.07-1.1-1.77.23-2.57,3.47-2.11,7.05-3.74,11.28-3.02,4.92.83,14.53,5.6,18.91,9.43Z"/>
      <path class="cls-2" d="M221.89,329.96c-.88,7.48-4.61,11.87-10.34,14.29-5.47,2.31-11.28,3.81-16.89,5.8-2.45.87-2.59-.09-2.05-2.04,1.39-5.02,4.85-8.22,9.36-10.33,6.25-2.92,13.18-3.98,19.92-7.73Z"/>
      <path class="cls-2" d="M321.29,350.25c6.92.16,8.27,2.44,5.39,8.13-3.7,7.32-5.69,8.14-13.18,6.33-2.72-.66-2.68-1.65-1.6-3.68,1.09-2.05,2.24-4.13,2.88-6.34,1.09-3.76,3.54-4.88,6.52-4.44Z"/>
      <path class="cls-2" d="M109.98,300.57c-.11.46-.12.8-.26,1.07-.42.84-12.9,6.47-13.46,5.95-2.59-2.39-4.03-5.61-5.83-8.57-.08-.13-.11-.42-.04-.48,3.48-2.63,7.78-3.54,11.61-5.45,2.31-1.15,3.22.89,4.28,2.32,1.28,1.73,2.51,3.49,3.7,5.15Z"/>
      <path class="cls-3" d="M332.17,148.48l-6.09-4.64c5.49-1.85,5.79-1.62,6.09,4.64Z"/>
      <path class="cls-3" d="M335.09,150.83c-1.23-.22-1.88-1.16-2.56-2.06,1.36.05,2.54.33,2.56,2.06Z"/>
      <path class="cls-3" d="M338.1,153.55c-.26-.23-.52-.47-.77-.7.26.23.52.47.77.7Z"/>
      <path class="cls-3" d="M336.09,151.71c-.32-.28-.63-.56-.95-.84.32.28.63.56.95.84Z"/>
      <path class="cls-1" d="M222.1,203.51c3.49.11,5.58,3.37,4.04,6.42-1.33,2.65-3.06,5.14-4.86,7.51-8.76,11.52-12.25,24.46-10.83,38.81.21,2.15.26,4.31.39,6.46.12,1.81-.28,3.39-2.19,3.99-1.78.56-3.19-.16-4.4-1.54-2.05-2.33-3.18-5.12-3.56-8.1-2.15-16.72.09-32.48,10.86-46.15,2.79-3.54,6-6.7,10.55-7.41Z"/>
    </g>
  </g>
</svg>